<?xml version="1.0" encoding="utf-8"?>
<!-- Generator: Adobe Illustrator 20.1.0, SVG Export Plug-In . SVG Version: 6.00 Build 0)  -->
<svg version="1.1" id="レイヤー_1" xmlns="http://www.w3.org/2000/svg" xmlns:xlink="http://www.w3.org/1999/xlink" x="0px"
	 y="0px" viewBox="0 0 23 23" style="enable-background:new 0 0 23 23;" xml:space="preserve">
<style type="text/css">
	.st0{fill:#FFFFFF;}
</style>
<g>
	<path class="st0" d="M20.9,17.7H5.4c-0.6,0-1.1-0.5-1.1-1.1V1.1C4.3,0.5,4.8,0,5.4,0h15.5C21.5,0,22,0.5,22,1.1v15.5
		C22,17.2,21.5,17.7,20.9,17.7z M7.1,15.5h12.2c0.3,0,0.5-0.2,0.5-0.5V2.8c0-0.3-0.2-0.5-0.5-0.5H7.1c-0.3,0-0.6,0.2-0.6,0.5v12.2
		C6.5,15.2,6.8,15.5,7.1,15.5z"/>
	<path class="st0" d="M18.7,22H1.1C0.5,22,0,21.5,0,20.9V3.3c0-0.6,0.5-1.1,1.1-1.1s1.1,0.5,1.1,1.1v15.9c0,0.3,0.2,0.5,0.5,0.5
		h15.9c0.6,0,1.1,0.5,1.1,1.1S19.3,22,18.7,22z"/>
</g>
</svg>
